{"title":"The.Bounty.Hunter.2010.SWESUB.DVDRip.XviD.AC3.(5.1).-Zen_Bud","uid":5643123,"size":1472806394,"categoryP":"video","categoryS":"movies","magnet":"?xt=urn:btih:e8f2d2eb1ef5426a9234cf5052a7d3dd0eab5c80&amp;dn=The.Bounty.Hunter.2010.SWESUB.DVDRip.XviD.AC3.%285.1%29.-Zen_Bud&amp;tr=udp%3A%2F%2Ftracker.openbittorrent.com%3A80&amp;tr=udp%3A%2F%2Fopen.demonii.com%3A1337&amp;tr=udp%3A%2F%2Ftracker.coppersurfer.tk%3A6969&amp;tr=udp%3A%2F%2Fexodus.desync.com%3A6969","seeders":1,"leechers":0,"uploader":"Zen_Bud","files":-1,"time":1277194403,"description":"General\nComplete name                    : The Bounty Hunter.avi\nFormat                           : AVI\nFile size                        : 1.37 GiB\nDuration                         : 1h 50mn\nOverall bit rate                 : 1 775 Kbps\n\nVideo\n\nFormat                           : MPEG-4 Visualult (H.263)\nCodec ID                         : XVID\nCodec ID/Hint                    : XviD\nDuration                         : 1h 50mn\nBit rate                         : 1 316 Kbps\nWidth                            : 720 pixels\nHeight                           : 362 pixels\nDisplay aspect ratio             : 2.35:1\nStream size                      : 1.02 GiB (74%)\nWriting library                  : XviD 1.1.2 (UTC 2006-11-01)\n\nAudio\n\nFormat                           : AC-3\nDuration                         : 1h 50mn\nBit rate                         : 448 Kbps\nChannel(s)                       : 6 channels\nChannel positions                : Front: L C R, Side: L R, LFE\nSampling rate                    : 48.0 KHz\nStream size                      : 355 MiB (25%)\n\n\n","torrent":{"xt":"urn:btih:e8f2d2eb1ef5426a9234cf5052a7d3dd0eab5c80","amp;dn":"The.Bounty.Hunter.2010.SWESUB.DVDRip.XviD.AC3.%285.1%29.-Zen_Bud","amp;tr":["udp%3A%2F%2Ftracker.openbittorrent.com%3A80","udp%3A%2F%2Fopen.demonii.com%3A1337","udp%3A%2F%2Ftracker.coppersurfer.tk%3A6969","udp%3A%2F%2Fexodus.desync.com%3A6969"],"infoHash":"e8f2d2eb1ef5426a9234cf5052a7d3dd0eab5c80","infoHashBuffer":{"type":"Buffer","data":[232,242,210,235,30,245,66,106,146,52,207,80,82,167,211,221,14,171,92,128]},"announce":[],"urlList":[]}}